<?xml version="1.0" standalone="no"?>
<!DOCTYPE svg PUBLIC "-//W3C//DTD SVG 20010904//EN"
 "http://www.w3.org/TR/2001/REC-SVG-20010904/DTD/svg10.dtd">
<svg version="1.0" xmlns="http://www.w3.org/2000/svg"
 width="200.000000pt" height="200.000000pt" viewBox="0 0 200.000000 200.000000"
 preserveAspectRatio="xMidYMid meet">
<metadata>
Created by potrace 1.11, written by Peter Selinger 2001-2013
</metadata>
<g transform="translate(0.000000,200.000000) scale(0.100000,-0.100000)"
fill="#000000" stroke="none">
<path d="M814 1880 c-341 -76 -607 -337 -691 -677 -25 -103 -22 -323 6 -428
82 -304 310 -542 606 -634 102 -32 135 -36 285 -35 115 1 148 5 223 28 302 91
526 309 616 601 31 97 36 141 35 285 0 97 -5 142 -23 204 -96 344 -360 590
-706 662 -75 15 -271 12 -351 -6z"/>
</g>
</svg>
